<?xml version="1.0" standalone="no"?>
<!DOCTYPE svg PUBLIC "-//W3C//DTD SVG 20010904//EN"
 "http://www.w3.org/TR/2001/REC-SVG-20010904/DTD/svg10.dtd">
<svg version="1.0" xmlns="http://www.w3.org/2000/svg"
 width="1191.000000pt" height="952.000000pt" viewBox="0 0 1191.000000 952.000000"
 preserveAspectRatio="xMidYMid meet">

<g transform="translate(0.000000,952.000000) scale(0.100000,-0.100000)"
fill="#000000" stroke="none">
<path d="M3035 8418 c-28 -94 -37 -421 -21 -791 5 -109 4 -147 -5 -142 -6 4
-9 18 -6 31 2 13 1 24 -2 24 -4 0 -5 16 -3 35 4 37 -15 75 -28 55 -4 -6 -7 9
-6 34 1 25 4 46 9 46 4 0 7 -4 7 -10 0 -5 5 -10 10 -10 18 0 10 18 -10 25 -11
4 -18 10 -15 15 3 5 13 6 22 3 11 -4 14 -3 9 5 -4 7 -13 12 -19 12 -14 0 -16
58 -3 79 6 9 5 12 -1 8 -16 -10 -10 26 7 41 8 8 9 11 3 7 -7 -3 -14 -1 -14 4
-1 6 -2 17 -3 24 -4 25 8 31 16 7 l7 -25 -2 25 c-3 33 -32 37 -51 8 -21 -32
-65 -307 -66 -409 0 -31 -8 -76 -17 -100 -14 -36 -17 -82 -17 -259 0 -118 -3
-201 -7 -185 -4 17 -7 51 -8 78 -1 33 -5 47 -15 47 -24 0 -30 -119 -17 -315
14 -219 32 -309 77 -398 19 -38 34 -69 34 -70 0 -1 -37 -2 -82 -2 -56 0 -83
-4 -86 -13 -2 -6 -9 -9 -15 -5 -8 5 -8 2 0 -8 20 -25 124 -43 318 -56 68 -4
112 12 107 41 -2 12 1 16 9 10 8 -4 10 -3 5 4 -9 14 -40 0 -69 -29 -23 -25
-37 -24 -78 4 -39 26 -80 93 -71 115 3 9 1 13 -5 9 -16 -10 -24 18 -10 32 9 9
8 11 -5 6 -11 -4 -18 -2 -18 4 0 6 5 11 10 11 6 0 10 5 10 11 0 5 -6 7 -12 3
-8 -5 -7 0 2 11 14 17 13 18 -2 12 -12 -4 -15 -2 -11 9 3 7 0 14 -6 14 -6 0
-11 5 -11 11 0 5 5 7 10 4 6 -3 10 -1 10 4 0 6 -6 11 -13 11 -16 0 -18 32 -3
42 7 5 3 8 -9 8 -15 0 -17 3 -7 9 11 7 11 9 -2 14 -9 4 -16 17 -16 29 0 13 -7
44 -15 71 -10 35 -11 47 -2 47 8 0 7 3 -2 9 -8 5 -11 16 -8 24 3 9 1 18 -6 21
-9 3 -9 5 0 5 7 1 10 8 6 18 -4 11 -3 14 5 9 7 -4 12 -13 12 -21 0 -19 82
-230 115 -294 46 -92 51 -35 11 125 -14 54 -25 108 -26 119 0 21 -8 100 -13
125 -1 8 -6 20 -9 26 -4 6 -10 30 -13 54 -5 39 -4 41 12 29 15 -13 15 -12 4 9
-6 12 -9 22 -5 22 3 0 1 7 -6 15 -10 12 -10 15 0 15 10 0 10 3 0 15 -10 12
-10 15 1 15 9 0 10 3 3 8 -6 4 -11 14 -12 22 0 8 -2 46 -5 85 -4 47 -1 72 6
77 9 6 9 8 0 8 -9 0 -13 20 -13 65 0 101 33 84 76 -39 8 -22 33 -142 55 -266
64 -365 87 -480 88 -435 6 233 4 426 -4 429 -5 3 -4 5 3 5 7 1 11 5 8 9 -4 7
-12 126 -22 342 -2 47 -6 103 -9 125 -10 75 -19 569 -14 755 0 8 -2 33 -5 55
-3 22 -5 52 -5 68 -1 27 -18 38 -26 15z m-47 -833 c-3 -3 -9 2 -12 12 -6 14
-5 15 5 6 7 -7 10 -15 7 -18z m-161 -727 c-3 -8 -6 -5 -6 6 -1 11 2 17 5 13 3
-3 4 -12 1 -19z"/>
<path d="M6556 8355 c-6 -22 -9 -25 -21 -15 -20 16 -19 1 1 -30 15 -24 14 -23
-9 2 -14 15 -27 33 -29 40 -4 11 -8 10 -22 -1 -9 -8 -28 -16 -42 -17 -13 -1
-31 -9 -39 -17 -13 -13 -9 -17 28 -32 23 -9 68 -20 100 -22 l58 -6 -7 59 c-8
70 -10 73 -18 39z"/>
<path d="M6652 8373 c-6 -3 -10 -9 -6 -14 5 -8 -9 -13 -28 -10 -5 0 -8 -2 -8
-6 0 -5 -4 -25 -9 -46 l-9 -39 36 7 c49 9 102 37 132 71 14 15 19 24 11 19
-10 -6 -13 -4 -9 6 4 11 -6 14 -46 15 -28 0 -57 -1 -64 -3z m75 -29 c-3 -3
-12 -4 -19 -1 -8 3 -5 6 6 6 11 1 17 -2 13 -5z"/>
<path d="M6581 8324 c0 -11 3 -14 6 -6 3 7 2 16 -1 19 -3 4 -6 -2 -5 -13z"/>
<path d="M6182 7998 c-9 -15 -20 -28 -25 -28 -4 0 -5 -4 -2 -10 3 -6 -1 -7 -9
-4 -9 3 -16 15 -16 25 0 12 -7 19 -20 19 -11 0 -20 5 -20 10 0 6 -4 10 -10 10
-5 0 -10 -7 -10 -16 0 -8 -4 -12 -10 -9 -12 7 -24 -39 -16 -60 11 -31 -11 -13
-33 25 -12 22 -27 40 -32 40 -10 0 13 -61 37 -97 18 -28 18 -31 -3 -29 -10 0
-18 -5 -18 -13 0 -8 -8 -15 -18 -17 -47 -7 -20 -11 70 -13 103 -1 198 20 190
42 -2 7 -11 12 -20 12 -20 0 -20 6 -2 69 8 27 15 55 15 61 0 22 -31 11 -48
-17z"/>
<path d="M6720 7979 c0 -5 -4 -8 -9 -4 -5 3 -16 -2 -24 -10 -18 -18 -62 -21
-51 -3 4 7 3 8 -5 4 -9 -6 -9 -11 0 -22 9 -11 8 -14 -5 -14 -9 0 -16 4 -16 8
0 4 -11 9 -25 10 -30 2 -33 -6 -5 -16 19 -7 19 -8 -2 -21 -18 -11 -20 -11 -15
3 4 9 2 16 -3 16 -17 0 -20 -18 -5 -30 8 -7 15 -9 15 -6 0 4 7 0 16 -8 16 -17
114 -23 114 -8 0 4 10 8 22 9 26 2 44 27 23 31 -8 2 -15 8 -15 13 0 6 4 8 8 5
4 -2 8 4 8 14 0 14 -4 16 -12 9 -9 -8 -11 -5 -7 10 3 12 3 21 -1 21 -3 0 -6
-5 -6 -11z m-10 -25 c0 -8 -5 -12 -10 -9 -6 4 -8 11 -5 16 9 14 15 11 15 -7z"/>
<path d="M6018 7803 c12 -2 30 -2 40 0 9 3 -1 5 -23 4 -22 0 -30 -2 -17 -4z"/>
<path d="M2977 7789 c7 -9 10 -19 6 -22 -3 -4 -1 -7 5 -7 17 0 15 16 -5 31
-16 12 -17 12 -6 -2z"/>
<path d="M5979 7783 c-1 -5 -1 -12 0 -17 1 -5 -5 -6 -14 -2 -12 4 -14 0 -9
-22 9 -39 51 -109 75 -126 19 -13 25 -13 58 2 20 9 38 20 39 25 2 4 9 4 14 1
7 -5 8 -2 3 6 -5 8 -3 11 6 8 16 -5 50 22 43 34 -3 4 -12 1 -20 -7 -11 -10
-24 -13 -42 -8 -15 4 -35 7 -44 7 -9 0 -16 3 -16 6 2 20 -5 27 -21 23 -16 -4
-19 0 -17 30 1 32 -1 34 -21 26 -14 -5 -25 -4 -29 3 -5 7 -3 8 6 3 9 -5 11 -4
6 3 -8 14 -15 15 -17 5z m158 -119 c-3 -3 -12 -4 -19 -1 -8 3 -5 6 6 6 11 1
17 -2 13 -5z"/>
<path d="M1540 5352 l0 -2389 148 -58 c81 -33 414 -166 740 -296 l592 -237 0
1798 0 1798 -197 78 c-109 42 -286 113 -393 156 -107 43 -215 87 -240 97 l-45
17 -3 82 -3 81 -47 16 c-26 10 -53 19 -59 21 -10 2 -13 64 -15 245 l-3 242
-60 22 c-33 13 -61 29 -63 36 -1 8 -3 88 -5 179 l-2 164 -70 27 -70 27 -5 109
-5 108 -90 32 c-49 17 -93 32 -97 32 -5 1 -8 -1074 -8 -2387z m100 2264 c0 -2
-8 -10 -17 -17 -16 -13 -17 -12 -4 4 13 16 21 21 21 13z m254 -1498 c-5 -8 -2
-9 10 -5 10 4 15 3 11 -3 -7 -11 8 -14 19 -3 10 11 37 12 30 2 -3 -5 -10 -7
-15 -4 -12 8 -11 -2 2 -26 8 -16 13 -18 25 -8 8 6 14 16 14 22 0 6 -7 2 -15
-9 -14 -18 -14 -17 -3 9 7 17 14 23 18 16 4 -6 10 -10 14 -10 19 3 24 -1 30
-21 6 -23 7 -23 21 -4 8 11 15 15 15 8 0 -6 7 -9 15 -5 9 3 15 2 14 -3 -3 -20
2 -26 15 -15 11 9 18 8 32 -6 10 -10 18 -16 18 -14 1 3 12 1 26 -3 14 -5 32
-10 40 -11 8 -2 16 -9 18 -15 2 -5 8 -8 13 -4 5 3 9 -2 9 -11 0 -9 -4 -13 -10
-10 -5 3 -10 1 -10 -4 0 -11 13 -15 37 -12 7 1 10 -5 7 -13 -7 -19 -24 -16
-47 8 -9 11 -20 16 -24 12 -4 -3 2 -13 13 -20 18 -14 18 -15 2 -21 -10 -4 -18
-11 -18 -17 0 -5 4 -7 9 -3 5 3 12 1 16 -5 4 -6 10 -8 15 -5 4 3 10 -2 14 -10
3 -8 13 -15 23 -15 19 0 46 -33 36 -44 -9 -8 -34 15 -27 25 3 5 -2 9 -10 9 -9
0 -19 0 -23 1 -4 0 -9 -5 -12 -12 -2 -7 1 -9 8 -5 6 4 11 2 11 -3 0 -13 -27
-14 -35 -2 -3 5 -1 12 5 16 15 9 12 22 -6 29 -10 4 -13 2 -8 -6 5 -8 1 -9 -12
-4 -10 4 -16 4 -12 1 4 -4 -6 -19 -21 -33 -15 -15 -25 -26 -22 -24 2 1 13 -5
23 -15 10 -9 18 -13 18 -8 0 4 6 2 13 -4 11 -8 14 -7 14 7 0 9 -4 20 -10 23
-6 4 -5 9 1 13 6 3 14 -3 17 -14 5 -17 10 -19 21 -10 7 7 19 10 26 7 8 -3 6
-6 -5 -6 -11 -1 -15 -6 -11 -13 4 -7 3 -8 -5 -4 -12 8 -10 -21 4 -56 6 -14 2
-18 -18 -18 -14 0 -32 -3 -41 -6 -9 -3 -16 -1 -16 6 0 6 5 8 13 4 9 -6 9 -5 0
8 -7 8 -10 18 -6 21 3 4 1 7 -5 7 -6 0 -14 -4 -17 -10 -3 -5 -1 -10 5 -10 6 0
8 -5 5 -10 -4 -6 -11 -8 -16 -5 -5 3 -6 -1 -3 -9 4 -10 1 -16 -7 -16 -8 0 -7
-4 4 -12 12 -9 14 -17 7 -28 -8 -13 -10 -12 -10 3 0 9 -7 17 -16 17 -9 0 -12
5 -8 12 4 7 3 8 -5 4 -6 -4 -9 -11 -6 -16 3 -5 -3 -14 -12 -19 -15 -9 -14 -10
9 -7 14 2 29 1 33 -2 4 -4 11 -7 16 -7 5 0 9 -4 8 -10 -1 -5 -5 -9 -9 -8 -4 1
-13 -4 -20 -12 -9 -11 -7 -18 9 -34 11 -11 16 -23 11 -26 -5 -3 -11 -1 -15 5
-4 6 -11 7 -17 4 -8 -5 -9 -1 -4 11 5 15 4 16 -9 5 -17 -14 -10 -34 10 -26 8
3 19 -2 25 -10 13 -15 55 -20 46 -6 -3 5 1 9 9 9 24 0 17 -16 -10 -23 -14 -3
-23 -10 -20 -14 10 -17 -13 -19 -26 -3 -12 14 -12 16 0 9 9 -6 12 -5 9 4 -5
16 -48 24 -48 9 0 -5 5 -7 10 -4 13 8 13 -1 -1 -27 -9 -17 -13 -18 -21 -7 -8
12 -9 11 -5 -1 2 -8 0 -23 -5 -34 -6 -10 -6 -16 -1 -13 5 3 15 -8 22 -24 7
-17 17 -26 24 -22 7 3 9 2 4 -2 -12 -13 -47 -16 -47 -4 0 5 5 7 10 4 6 -3 10
-1 10 4 0 22 -36 0 -68 -41 -12 -15 -11 -17 7 -13 14 2 22 -3 27 -18 3 -12 14
-31 23 -41 9 -11 11 -16 4 -13 -6 4 -14 3 -18 -3 -3 -5 -2 -10 3 -10 6 0 8 -9
5 -20 -3 -11 -9 -17 -14 -15 -4 3 -6 12 -2 20 3 8 0 15 -7 15 -6 0 -8 -4 -5
-10 13 -21 -10 -9 -31 17 -14 18 -23 23 -28 14 -4 -6 -3 -10 2 -9 6 2 11 -1
12 -7 2 -5 12 -16 23 -24 19 -13 19 -15 2 -27 -9 -7 -24 -10 -32 -7 -10 4 -14
0 -11 -13 2 -12 -2 -18 -12 -16 -9 1 -6 -6 9 -18 13 -11 18 -20 12 -20 -6 0
-11 -4 -11 -9 0 -24 46 1 53 29 3 11 1 18 -4 14 -5 -3 -9 -12 -9 -20 0 -8 -5
-12 -10 -9 -6 4 -8 11 -5 16 3 5 -2 6 -12 2 -15 -5 -14 -2 4 17 21 23 23 23
42 6 12 -11 21 -14 26 -7 3 6 1 11 -4 11 -6 0 -11 4 -11 8 0 5 7 9 15 9 8 0
13 -3 10 -5 -3 -3 1 -12 8 -20 8 -11 8 -14 0 -9 -6 4 -14 3 -18 -3 -4 -6 -11
-8 -16 -5 -8 5 -14 -24 -10 -48 1 -5 -3 -6 -8 -3 -5 3 -11 -1 -14 -8 -4 -10 0
-13 14 -11 10 2 19 0 19 -5 0 -5 6 -7 14 -4 17 7 28 -9 20 -30 -5 -12 -10 -11
-32 11 -16 16 -27 22 -30 14 -3 -9 -8 -9 -20 1 -12 9 -12 6 2 -9 10 -13 21
-21 25 -19 3 2 15 -6 26 -17 l20 -20 -23 13 c-13 6 -27 8 -30 4 -4 -4 -1 -9 6
-11 16 -6 15 -18 -4 -38 -15 -15 -18 -14 -43 1 -14 9 -23 13 -18 9 4 -5 -1
-18 -10 -29 -10 -12 -14 -18 -9 -14 5 4 15 0 22 -10 10 -14 15 -15 26 -4 11
11 10 12 -4 7 -14 -6 -18 -2 -18 14 0 18 3 20 19 12 10 -6 28 -9 40 -6 11 2
23 0 26 -4 2 -5 -5 -8 -18 -7 -21 1 -23 -4 -18 -45 0 -5 6 -7 13 -3 7 5 8 3 3
-6 -6 -10 -11 -10 -20 3 -23 32 -42 16 -36 -32 2 -7 -2 -10 -8 -6 -16 9 -13
-7 4 -32 13 -19 13 -23 0 -36 -11 -12 -12 -17 -2 -20 9 -4 8 -8 -3 -16 -13 -9
-13 -11 -1 -11 10 0 2 -14 -20 -37 -28 -32 -29 -34 -4 -11 26 22 32 24 43 12
7 -8 10 -14 6 -14 -3 0 -1 -7 6 -15 7 -8 17 -12 22 -9 6 4 5 -3 -1 -15 -15
-27 -35 -28 -28 -1 3 11 1 20 -4 20 -16 0 -20 -25 -10 -51 5 -15 5 -32 0 -41
-14 -25 16 -45 39 -27 10 8 6 3 -9 -11 -23 -21 -26 -28 -16 -45 14 -25 18 -47
6 -40 -4 3 -11 -6 -15 -20 -3 -14 -10 -25 -16 -25 -5 0 -6 6 -2 13 5 8 2 7 -9
-2 -16 -13 -16 -15 -2 -31 9 -10 17 -29 19 -43 3 -29 24 -59 36 -52 5 3 12 0
16 -6 5 -9 -1 -10 -20 -5 -17 4 -25 3 -22 -3 4 -5 2 -12 -4 -16 -5 -3 -10 -11
-10 -17 0 -7 5 -6 14 1 10 9 16 9 21 1 4 -6 4 -14 1 -17 -3 -4 -6 -1 -6 6 0 7
-5 9 -10 6 -6 -4 -8 -10 -5 -15 3 -4 -1 -13 -9 -19 -10 -9 -15 -8 -20 4 -3 8
-2 15 2 15 13 0 8 48 -7 62 -11 11 -12 10 -3 -6 6 -13 7 -29 1 -44 -6 -16 -6
-29 1 -37 5 -6 8 -14 5 -17 -3 -2 5 -4 18 -3 12 2 21 8 19 14 -1 7 2 10 7 7 6
-4 3 -18 -6 -36 -17 -35 -23 -38 -18 -9 3 16 1 18 -9 10 -7 -6 -15 -8 -18 -5
-3 3 -9 -1 -14 -8 -4 -7 -4 -10 1 -6 11 11 36 -12 28 -25 -3 -6 -1 -7 5 -3 7
4 12 2 12 -3 0 -6 -5 -11 -11 -11 -5 0 -7 -5 -4 -10 4 -6 11 -8 16 -5 5 3 6
-1 3 -9 -3 -9 -10 -16 -16 -16 -5 0 -6 -10 -3 -21 5 -14 3 -19 -3 -15 -6 3
-14 1 -18 -5 -4 -8 -3 -9 4 -5 8 4 16 -4 23 -21 7 -19 7 -29 0 -31 -6 -2 -8
-8 -5 -13 3 -6 12 -5 22 3 15 11 15 11 5 -3 -7 -9 -9 -20 -5 -25 4 -4 0 -3
-10 4 -19 15 -27 5 -19 -23 6 -19 20 -27 47 -28 15 0 11 -24 -6 -40 -12 -10
-12 -9 -1 5 10 14 9 18 -8 27 -13 7 -22 8 -26 1 -3 -5 -1 -10 5 -10 6 0 8 -10
4 -26 -5 -18 -3 -25 3 -21 6 4 14 0 17 -9 3 -8 2 -13 -3 -10 -5 3 -11 -4 -15
-16 -3 -15 2 -31 17 -47 22 -25 8 -21 -28 8 -20 16 -20 15 -2 -5 17 -21 21
-77 4 -67 -12 7 2 -39 16 -52 7 -7 7 -5 2 5 -6 12 -5 13 5 3 11 -10 11 -16 -2
-30 -18 -20 -16 -75 2 -81 7 -3 5 -11 -7 -24 -19 -22 -26 -68 -9 -65 6 1 10
-7 8 -18 -2 -16 -1 -17 7 -6 10 16 49 22 56 10 3 -4 -6 -6 -20 -5 -22 3 -24 0
-19 -23 4 -20 3 -23 -5 -11 -9 13 -13 12 -28 -4 -17 -19 -17 -19 1 -6 18 14
18 13 11 -10 -7 -22 -6 -23 9 -11 14 12 16 12 10 -3 -8 -21 5 -21 23 2 10 12
10 8 -2 -15 -15 -32 -27 -44 -23 -22 2 6 -2 13 -9 16 -13 5 -11 -26 3 -50 6
-9 4 -9 -8 1 -11 9 -18 10 -23 2 -3 -6 -11 -7 -17 -4 -6 4 -8 2 -5 -4 4 -5 15
-9 25 -7 9 1 23 -2 30 -8 6 -5 12 -6 12 -2 0 4 8 1 18 -6 15 -13 16 -12 3 3
-7 10 -18 15 -24 11 -6 -3 -7 -1 -3 5 5 9 13 9 26 2 16 -8 18 -7 14 4 -8 22
26 13 39 -10 9 -16 8 -17 -4 -7 -12 10 -15 8 -16 -7 -1 -11 2 -22 8 -25 5 -3
6 1 2 11 -5 14 -3 15 16 4 20 -10 22 -10 12 7 -12 24 2 48 23 40 17 -7 22 -37
6 -37 -5 0 -10 7 -10 16 0 8 -5 12 -11 9 -7 -5 -4 -14 7 -26 17 -19 18 -19 42
8 13 15 21 23 18 17 -3 -7 1 -15 10 -18 8 -3 12 -10 9 -16 -3 -5 -1 -18 4 -27
8 -15 11 -15 12 -3 1 8 1 18 0 23 0 4 3 7 9 7 5 0 10 4 10 9 0 5 -7 8 -16 7
-9 0 -19 5 -22 13 -3 10 -1 11 9 5 8 -5 19 -9 24 -9 6 0 9 -13 9 -29 -1 -27 0
-28 12 -11 7 10 11 21 9 25 -2 4 2 7 10 7 9 0 11 -4 6 -11 -7 -9 -12 -46 -6
-46 2 0 9 8 16 17 12 14 12 16 0 8 -10 -5 -12 -4 -7 4 4 6 11 9 16 6 4 -3 10
1 13 7 2 7 4 -3 5 -22 0 -24 -2 -30 -8 -20 -6 8 -10 10 -10 4 0 -18 12 -24 25
-14 9 8 14 6 18 -5 4 -9 13 -12 23 -8 12 4 15 3 10 -5 -11 -18 0 -14 15 5 9
11 10 14 2 9 -9 -5 -11 -2 -7 8 5 12 9 13 19 3 7 -7 10 -16 7 -21 -3 -5 7 -7
21 -4 15 3 24 1 21 -3 -3 -5 2 -9 10 -9 10 0 13 6 10 18 -5 13 -4 14 4 3 5 -7
15 -10 21 -7 10 7 33 -32 26 -44 -2 -3 15 -5 36 -6 32 0 39 2 34 15 -3 11 0
10 10 -3 8 -11 15 -17 15 -13 0 5 6 2 14 -5 8 -7 12 -16 10 -20 -2 -4 0 -9 6
-13 5 -3 10 2 10 12 0 15 2 15 9 3 6 -8 8 -17 6 -20 -2 -3 6 -7 18 -7 15 -2
18 0 9 6 -11 7 -10 9 2 14 9 4 17 2 17 -3 3 -20 4 -25 11 -35 3 -6 7 -61 7
-123 1 -101 0 -112 -16 -111 -10 0 -227 85 -483 187 l-465 187 1 1390 c1 1451
2 1507 16 1499 5 -3 6 -10 3 -15 -4 -5 -2 -9 3 -9 5 0 13 10 16 23 l7 22 9
-22 c5 -13 12 -23 15 -23 4 0 3 5 0 10 -4 6 -1 17 5 25 15 18 24 20 14 3z
m387 -141 c-10 -9 -11 -8 -5 6 3 10 9 15 12 12 3 -3 0 -11 -7 -18z m54 3 c3
-5 2 -10 -4 -10 -5 0 -13 5 -16 10 -3 6 -2 10 4 10 5 0 13 -4 16 -10z m17 -42
c-12 -12 -24 -19 -28 -15 -3 3 0 13 9 21 8 8 17 12 21 9 3 -4 6 0 6 7 0 7 3
10 7 6 4 -3 -3 -16 -15 -28z m-64 -16 c2 -7 9 -9 14 -6 7 5 8 2 3 -6 -6 -10
-4 -12 9 -7 10 4 15 3 11 -3 -8 -12 -37 -9 -47 5 -4 6 -12 11 -18 11 -19 3
-21 4 -16 13 8 12 39 7 44 -7z m119 2 c-3 -3 -12 -4 -19 -1 -8 3 -5 6 6 6 11
1 17 -2 13 -5z m-47 -14 c0 -5 -4 -10 -10 -10 -5 0 -10 5 -10 10 0 6 5 10 10
10 6 0 10 -4 10 -10z m-141 -67 c-13 -14 -19 -23 -12 -19 6 3 14 2 17 -3 7
-11 -13 -9 -33 3 -11 7 -9 13 10 27 35 27 46 23 18 -8z m96 -33 c-3 -5 -12
-10 -18 -10 -7 0 -6 4 3 10 19 12 23 12 15 0z m28 -25 c-3 -9 -8 -14 -10 -11
-3 3 -2 9 2 15 9 16 15 13 8 -4z m-34 -17 c-15 -30 -24 -38 -16 -15 4 10 1 17
-6 17 -8 0 -6 4 3 10 25 16 31 11 19 -12z m-74 -68 c3 0 3 5 -1 12 -4 7 -3 8
4 4 13 -8 -2 -46 -17 -46 -5 0 -8 -11 -7 -25 0 -16 6 -23 14 -20 7 3 10 0 7
-5 -3 -6 0 -10 8 -10 7 0 14 -6 14 -14 0 -12 -6 -10 -25 5 -17 13 -29 16 -37
9 -13 -11 -25 -4 -25 14 0 6 4 5 9 -2 6 -10 10 -10 21 3 10 12 10 18 0 30 -15
18 -3 38 19 31 12 -5 12 -3 -3 9 -10 8 -23 12 -29 8 -6 -3 -7 -1 -3 5 5 9 13
9 26 2 10 -5 21 -10 25 -10z m60 -80 c3 -5 -1 -10 -10 -10 -9 0 -13 5 -10 10
3 6 8 10 10 10 2 0 7 -4 10 -10z m-79 -47 c-10 -10 -19 5 -10 18 6 11 8 11 12
0 2 -7 1 -15 -2 -18z m-59 -75 c-2 -7 -1 -20 4 -29 6 -12 3 -21 -9 -30 -14
-11 -15 -11 -5 0 13 15 6 44 -8 35 -5 -3 -6 -10 -3 -16 4 -7 2 -8 -4 -4 -9 5
-7 14 5 31 20 27 27 31 20 13z m-37 -126 c7 2 15 -4 17 -12 4 -13 3 -13 -6 0
-10 14 -15 8 -12 -15 1 -5 -5 -2 -13 9 -9 11 -20 15 -28 10 -10 -6 -9 -3 1 10
10 11 16 13 21 6 4 -6 13 -10 20 -8z m17 -57 c0 -8 -4 -12 -9 -9 -5 3 -6 10
-3 15 9 13 12 11 12 -6z m603 -130 l30 -16 0 -754 c0 -846 6 -789 -73 -716
l-42 40 0 698 c0 650 1 700 18 731 20 36 26 38 67 17z m-683 -302 c-4 -3 -2
-12 4 -20 9 -10 8 -13 -5 -13 -11 0 -15 -5 -10 -12 4 -7 3 -9 -1 -5 -14 12
-15 41 -2 49 15 10 23 10 14 1z m-10 -88 c0 -8 -4 -12 -9 -9 -5 3 -6 10 -3 15
9 13 12 11 12 -6z m5 -32 c-10 -4 -10 -8 -1 -19 10 -12 9 -13 -4 -8 -25 9 -27
30 -3 31 11 0 15 -1 8 -4z m12 -139 c3 -8 2 -12 -4 -9 -6 3 -10 10 -10 16 0
14 7 11 14 -7z m-4 -179 c0 -2 -6 -8 -13 -14 -10 -8 -14 -7 -14 2 0 8 6 14 14
14 7 0 13 -1 13 -2z m-19 -40 c9 2 16 -4 16 -11 0 -8 -3 -12 -5 -9 -3 3 -12
-1 -20 -8 -11 -8 -14 -8 -9 0 4 6 3 14 -3 18 -5 3 -10 12 -10 18 0 9 2 9 8 1
4 -6 14 -10 23 -9z m0 -342 c2 1 -1 -3 -8 -9 -7 -6 -11 -14 -8 -17 3 -4 2 -5
-2 -2 -4 3 -7 14 -8 25 -1 14 2 17 10 10 7 -5 14 -9 16 -7z m5 -378 c1 -8 -2
-15 -6 -15 -5 0 -8 9 -7 20 1 21 10 18 13 -5z m38 -63 c3 -5 -1 -9 -9 -9 -8 0
-12 4 -9 9 3 4 7 8 9 8 2 0 6 -4 9 -8z m-44 -16 c0 -3 -4 -8 -10 -11 -5 -3
-10 -1 -10 4 0 6 5 11 10 11 6 0 10 -2 10 -4z m25 -115 c-1 -9 -13 -17 -28
-19 -22 -3 -26 0 -20 14 4 11 8 13 11 6 2 -7 8 -12 13 -12 4 0 6 6 3 13 -3 8
2 14 9 14 8 0 14 -7 12 -16z m341 -253 c4 -7 3 -8 -4 -4 -7 4 -12 3 -12 -3 0
-5 5 -11 12 -13 8 -3 7 -6 -4 -10 -11 -5 -15 -1 -13 15 4 32 8 36 21 15z m257
-63 c-3 -9 -8 -14 -10 -11 -3 3 -2 9 2 15 9 16 15 13 8 -4z"/>
<path d="M2006 6087 c3 -10 9 -15 12 -12 3 3 0 11 -7 18 -10 9 -11 8 -5 -6z"/>
<path d="M2175 6020 c-4 -6 -10 -8 -14 -6 -4 3 -8 -1 -8 -9 0 -11 4 -12 13 -4
7 6 19 7 26 3 18 -11 48 -12 48 -2 0 5 -10 8 -22 6 -14 -2 -22 2 -20 10 2 14
-14 16 -23 2z"/>
<path d="M2172 5986 c4 -5 3 -15 -2 -21 -7 -9 -6 -16 5 -25 8 -7 16 -10 16 -6
1 3 2 9 3 14 1 4 5 14 10 22 5 8 6 12 1 8 -4 -4 -15 -2 -24 4 -9 7 -13 8 -9 4z
m15 -31 c0 -8 -4 -12 -9 -9 -5 3 -6 10 -3 15 9 13 12 11 12 -6z"/>
<path d="M2186 5917 c-16 -12 -16 -13 2 -13 10 0 19 6 19 13 0 7 -1 13 -2 13
-1 0 -9 -6 -19 -13z"/>
<path d="M2143 5863 c4 -3 1 -13 -6 -22 -11 -14 -10 -14 5 -2 16 12 16 31 1
31 -4 0 -3 -3 0 -7z"/>
<path d="M2176 5783 c-6 -14 -5 -15 5 -6 7 7 10 15 7 18 -3 3 -9 -2 -12 -12z"/>
<path d="M2216 5766 c7 -11 24 -21 36 -23 22 -4 22 -3 3 12 -11 9 -15 14 -9
11 6 -3 11 1 11 8 0 8 -11 13 -28 12 -25 -1 -26 -2 -13 -20z"/>
<path d="M2076 5722 c-3 -5 1 -9 9 -9 8 0 12 4 9 9 -3 4 -7 8 -9 8 -2 0 -6 -4
-9 -8z"/>
<path d="M2107 5643 c-3 -5 3 -15 15 -22 11 -7 17 -8 14 -2 -4 5 2 14 11 20
10 6 13 11 6 11 -6 0 -15 -5 -19 -11 -5 -8 -9 -8 -14 1 -4 7 -10 8 -13 3z"/>
<path d="M2075 5620 c-4 -6 -12 -7 -18 -4 -7 4 -8 3 -4 -1 13 -15 34 -14 34 1
0 17 -4 18 -12 4z"/>
<path d="M2045 5489 c-4 -6 -5 -12 -2 -15 2 -3 7 2 10 11 7 17 1 20 -8 4z"/>
<path d="M2068 5453 c6 -2 9 -10 6 -15 -4 -7 -2 -8 5 -4 13 9 5 26 -12 25 -9
0 -8 -2 1 -6z"/>
<path d="M2010 5445 c0 -2 6 -8 13 -14 10 -8 14 -7 14 2 0 8 -6 14 -14 14 -7
0 -13 -1 -13 -2z"/>
<path d="M2066 5329 c2 -4 0 -10 -6 -14 -6 -4 -5 -11 3 -19 9 -10 14 -11 19
-2 6 8 8 7 8 -2 0 -7 5 -10 10 -7 15 9 1 27 -16 21 -16 -6 -19 5 -4 20 7 7 6
11 -4 11 -8 0 -13 -4 -10 -8z"/>
<path d="M1966 5141 c-4 -5 -2 -12 4 -16 5 -3 10 -3 10 1 0 4 8 0 18 -9 12
-11 22 -13 32 -6 12 8 11 9 -5 7 -13 -2 -19 2 -17 12 2 8 0 12 -4 8 -4 -4 -13
-3 -20 3 -8 6 -14 6 -18 0z"/>
<path d="M2105 5080 c3 -5 8 -10 11 -10 2 0 4 5 4 10 0 6 -5 10 -11 10 -5 0
-7 -4 -4 -10z"/>
<path d="M2023 5065 c0 -8 4 -12 9 -9 5 3 6 10 3 15 -9 13 -12 11 -12 -6z"/>
<path d="M2043 5048 c-24 -32 -24 -38 1 -36 19 2 22 5 15 15 -6 7 -8 17 -4 23
9 14 -1 13 -12 -2z"/>
<path d="M1974 4903 c2 -10 6 -17 10 -16 15 3 16 11 2 22 -12 10 -14 9 -12 -6z"/>
<path d="M1984 4524 c2 -10 12 -18 23 -19 14 -1 19 3 16 12 -3 8 -8 11 -11 9
-3 -3 -11 -1 -18 5 -9 7 -12 6 -10 -7z"/>
<path d="M2003 4475 c0 -8 4 -15 8 -15 4 0 9 7 13 15 3 9 0 15 -8 15 -7 0 -13
-7 -13 -15z"/>
<path d="M1960 4086 c0 -2 7 -7 16 -10 8 -3 12 -2 9 4 -6 10 -25 14 -25 6z"/>
<path d="M1993 3725 c0 -8 4 -12 9 -9 5 3 6 10 3 15 -9 13 -12 11 -12 -6z"/>
<path d="M2520 3175 c-7 -8 -16 -13 -20 -10 -5 3 -11 2 -14 -3 -2 -4 4 -9 15
-9 10 -1 19 3 19 8 0 6 4 8 8 5 5 -3 9 1 9 9 0 19 -2 19 -17 0z"/>
<path d="M2529 3148 c-7 -23 -4 -35 7 -35 9 0 11 4 4 12 -5 7 -7 15 -3 18 3 4
3 7 0 7 -4 0 -7 -1 -8 -2z"/>
<path d="M2978 7658 c7 -28 22 -32 22 -5 0 13 -6 24 -14 24 -8 0 -11 -8 -8
-19z"/>
<path d="M9082 7578 c-1 -60 1 -108 6 -108 4 0 6 33 4 72 -5 132 -9 145 -10
36z"/>
<path d="M8944 7590 c3 -14 8 -56 11 -95 2 -38 9 -117 14 -175 6 -58 10 -111
11 -117 0 -7 5 -13 10 -13 6 0 10 26 10 57 0 31 3 54 6 51 19 -19 44 -172 45
-272 l1 -111 13 75 c17 94 18 113 5 105 -6 -4 -10 9 -11 32 0 21 -2 54 -3 73
-2 19 3 64 11 100 23 103 31 160 21 154 -4 -3 -8 -15 -8 -26 0 -33 -31 -152
-43 -163 -7 -7 -8 -4 -4 8 4 10 0 62 -8 115 -11 73 -19 101 -34 113 -11 9 -25
36 -30 59 -5 23 -12 45 -16 48 -4 4 -4 -4 -1 -18z m67 -170 c5 -34 7 -65 4
-68 -3 -3 -5 1 -5 9 0 8 -5 20 -12 27 -7 7 -14 36 -16 65 -5 72 15 50 29 -33z"/>
<path d="M8712 7478 c74 -92 160 -229 190 -305 7 -18 17 -33 21 -33 5 0 5 -4
2 -10 -3 -5 -2 -10 3 -10 5 0 9 -6 9 -13 0 -25 45 -152 64 -178 10 -15 19 -33
19 -40 0 -7 3 -9 7 -6 3 4 2 17 -4 30 -6 12 -19 49 -28 82 -20 66 -130 295
-177 365 -44 66 -122 160 -132 160 -4 0 7 -19 26 -42z"/>
<path d="M8560 7489 c0 -5 17 -24 38 -42 127 -109 149 -137 223 -278 40 -76
77 -139 81 -139 12 0 11 2 -32 81 -22 41 -54 102 -71 136 -20 39 -53 82 -89
115 -125 116 -150 137 -150 127z"/>
<path d="M9257 7423 c-30 -38 -62 -82 -71 -100 -27 -53 -34 -47 -30 26 2 40 0
73 -6 76 -6 4 -10 -20 -10 -64 0 -45 -7 -89 -19 -120 -10 -28 -16 -52 -13 -55
3 -4 1 -6 -5 -6 -11 0 -36 -60 -29 -68 6 -5 35 57 50 107 6 18 16 34 21 35 9
0 113 138 162 213 30 46 3 22 -50 -44z"/>
<path d="M9374 7378 c-90 -83 -165 -192 -199 -289 -22 -62 0 -54 24 9 30 78
73 142 159 240 40 45 70 82 67 82 -3 0 -26 -19 -51 -42z"/>
<path d="M9141 7158 c0 -9 -4 -25 -7 -35 -5 -17 -5 -17 6 0 6 10 9 25 7 35 -4
15 -5 15 -6 0z"/>
<path d="M8995 7068 c9 -61 15 -78 26 -78 6 0 8 8 5 18 -2 9 -8 36 -11 60 -4
23 -11 42 -17 42 -6 0 -7 -16 -3 -42z"/>
<path d="M9106 7055 c-3 -9 -6 -25 -6 -36 0 -10 -4 -19 -9 -19 -4 0 -6 -11 -4
-24 3 -13 0 -27 -6 -30 -6 -4 -11 -17 -11 -29 0 -38 17 -4 34 71 16 67 17 106
2 67z"/>
<path d="M9153 7028 c4 -10 2 -18 -4 -18 -6 0 -7 -5 -3 -11 5 -8 10 -6 16 6 7
12 6 21 -2 28 -10 9 -12 8 -7 -5z"/>
<path d="M8908 7012 c8 -5 13 -12 13 -16 0 -3 4 -16 9 -28 5 -15 9 -17 9 -7 1
9 -2 19 -6 23 -5 4 -8 13 -8 19 0 5 -7 12 -15 14 -12 4 -12 3 -2 -5z"/>
<path d="M9116 6913 c-6 -14 -5 -15 5 -6 7 7 10 15 7 18 -3 3 -9 -2 -12 -12z"/>
<path d="M8970 6896 c0 -2 8 -10 18 -17 15 -13 16 -12 3 4 -13 16 -21 21 -21
13z"/>
<path d="M2686 6255 c13 -62 57 -118 117 -149 60 -31 167 -48 167 -28 0 6 -4
14 -10 17 -5 3 -10 11 -10 16 0 6 4 8 9 5 13 -8 42 4 35 15 -3 5 2 12 11 15 9
4 14 13 11 20 -3 7 0 16 6 20 7 4 8 3 4 -4 -5 -8 -1 -10 9 -6 33 13 -23 34
-117 44 -51 5 -118 17 -148 27 -30 9 -59 17 -65 18 -5 0 -14 5 -18 10 -4 6 -5
-3 -1 -20z"/>
<path d="M5908 6016 c-20 -11 -23 -19 -22 -68 1 -49 -2 -57 -22 -67 -37 -17
-54 -53 -60 -132 -5 -60 -3 -78 8 -90 14 -13 13 -23 -3 -84 -20 -79 -24 -131
-9 -140 10 -6 7 -40 -16 -204 -13 -86 -13 -105 -2 -112 27 -18 37 -8 48 49 17
87 48 190 49 162 0 -14 -6 -73 -13 -132 -12 -103 -11 -108 7 -114 10 -3 20 -4
22 -2 4 4 28 111 51 233 9 44 21 90 26 102 7 14 8 88 4 215 -4 115 -3 199 3
207 6 10 2 21 -16 37 -30 28 -27 55 10 72 31 15 32 20 12 49 -19 27 -47 34
-77 19z m17 -184 c-3 -3 -11 0 -18 7 -9 10 -8 11 6 5 10 -3 15 -9 12 -12z
m-75 -79 c-3 -72 -1 -85 10 -78 6 3 10 1 10 -4 0 -18 -19 -12 -30 10 -11 19
-5 119 7 119 2 0 4 -21 3 -47z"/>
<path d="M5980 5762 c0 -64 3 -72 35 -113 19 -24 35 -50 35 -56 0 -7 4 -13 10
-13 11 0 0 32 -36 104 -14 29 -24 67 -24 92 0 24 -4 46 -10 49 -6 4 -10 -19
-10 -63z"/>
<path d="M6714 5648 c1 -17 -5 -23 -19 -23 -11 0 -20 -7 -20 -15 -1 -8 -7 -14
-15 -12 -11 3 -9 -2 4 -17 10 -11 24 -17 34 -14 8 4 13 2 9 -3 -3 -6 22 -9 61
-8 65 1 93 16 53 29 -12 3 -21 11 -21 17 0 7 5 6 14 -1 11 -9 16 -9 22 1 4 7
3 10 -1 5 -5 -4 -17 1 -28 10 -12 10 -17 12 -12 4 5 -9 3 -12 -6 -9 -8 3 -13
10 -12 15 1 6 -9 9 -22 7 -13 -1 -24 1 -24 4 3 17 -2 32 -9 32 -5 0 -8 -10 -8
-22z m-1 -41 c4 3 7 4 7 1 0 -3 -9 -13 -19 -22 -14 -13 -21 -14 -27 -5 -5 8
-3 10 6 4 10 -6 12 -3 7 14 -4 17 -3 20 7 12 7 -6 16 -8 19 -4z"/>
<path d="M6695 5640 c3 -5 8 -10 11 -10 2 0 4 5 4 10 0 6 -5 10 -11 10 -5 0
-7 -4 -4 -10z"/>
<path d="M6750 5482 c-53 -18 -35 -81 22 -73 3 0 24 2 47 3 30 2 43 8 50 26 8
17 8 24 -2 27 -27 11 -103 21 -117 17z"/>
<path d="M9850 5423 c0 -7 5 -13 10 -13 6 0 10 -7 10 -15 0 -8 5 -15 11 -15 5
0 8 -4 5 -9 -3 -5 1 -14 9 -21 8 -7 12 -16 9 -21 -3 -5 -1 -9 5 -9 19 0 6 40
-26 77 -18 21 -32 32 -33 26z"/>
<path d="M6758 5378 c9 -9 15 -9 24 0 9 9 7 12 -12 12 -19 0 -21 -3 -12 -12z"/>
<path d="M6208 5363 c6 -2 18 -2 25 0 6 3 1 5 -13 5 -14 0 -19 -2 -12 -5z"/>
<path d="M9925 5293 c4 -10 10 -27 13 -38 6 -24 54 -96 76 -114 19 -16 22 -1
4 17 -7 7 -8 12 -2 12 5 0 3 4 -4 9 -7 4 -14 18 -15 29 -1 12 -7 22 -14 22 -7
0 -13 9 -13 19 0 11 -5 23 -10 26 -6 4 -8 10 -5 15 3 4 -2 11 -11 14 -24 9
-27 7 -19 -11z"/>
<path d="M4863 5203 c-7 -3 -13 -12 -13 -20 0 -9 6 -13 14 -10 7 3 19 0 25 -6
6 -6 11 -7 11 -1 0 5 4 3 9 -5 8 -12 81 -28 81 -17 0 2 -21 11 -46 20 -26 9
-52 22 -58 30 -6 7 -17 12 -23 9z"/>
<path d="M5019 5123 c-7 -10 -9 -15 -5 -11 5 4 15 3 22 -3 7 -6 14 -6 18 -1 3
6 0 15 -8 21 -10 9 -17 7 -27 -6z"/>
<path d="M5130 5068 c0 -4 4 -8 9 -8 6 0 12 4 15 8 3 5 -1 9 -9 9 -8 0 -15 -4
-15 -9z"/>
<path d="M5213 5045 c0 -8 4 -12 9 -9 5 3 6 10 3 15 -9 13 -12 11 -12 -6z"/>
<path d="M5243 5035 c0 -8 4 -12 9 -9 5 3 6 10 3 15 -9 13 -12 11 -12 -6z"/>
<path d="M9719 5019 c-1 -19 1 -77 5 -111 2 -17 -1 -25 -7 -21 -6 4 -8 -3 -3
-18 4 -13 9 -51 12 -84 l5 -60 -16 35 c-18 38 -26 128 -13 136 4 3 8 14 8 25
0 16 -5 19 -20 15 -11 -3 -29 -9 -40 -12 -24 -7 -27 -46 -4 -64 18 -16 46 -79
39 -90 -3 -5 -1 -11 5 -15 13 -8 13 -25 0 -25 -14 0 -45 70 -71 158 -16 55
-25 72 -38 70 -28 -5 -28 -16 -4 -90 13 -39 22 -73 20 -74 -2 -2 -18 22 -37
54 l-33 58 -58 -29 c-58 -29 -139 -91 -139 -107 0 -5 8 -11 18 -13 9 -2 7 -3
-6 -2 -26 3 -47 -34 -37 -65 17 -53 153 -131 290 -165 168 -43 429 -31 578 25
31 12 55 26 52 31 -4 5 0 6 7 4 20 -8 98 63 114 102 18 42 4 72 -57 127 -70
64 -213 115 -321 116 -33 0 -38 -3 -44 -27 -3 -16 -7 -33 -9 -40 -2 -6 -1 -14
3 -18 4 -4 7 -12 7 -18 0 -7 7 -12 15 -12 19 0 30 -26 18 -42 -6 -7 -7 -13 -2
-13 5 0 2 -5 -6 -10 -17 -11 -15 -67 3 -89 9 -11 9 -15 0 -18 -7 -3 -13 -15
-13 -28 0 -39 -24 -55 -64 -43 -27 9 -35 17 -39 42 -5 34 -3 132 6 271 3 50 4
80 1 68 -3 -13 -10 -23 -15 -23 -6 0 -8 -3 -6 -7 3 -5 1 -17 -4 -28 -7 -18 -8
-17 -6 5 1 14 6 30 10 36 4 7 -5 19 -21 29 -15 10 -39 29 -54 43 -20 18 -28
21 -29 11z m-304 -249 c-3 -4 1 -10 7 -13 7 -2 10 -7 7 -11 -9 -10 -40 24 -33
35 3 5 10 7 15 3 5 -3 7 -9 4 -14z m650 0 c3 -5 3 -15 -1 -21 -6 -11 -23 6
-24 24 0 10 18 9 25 -3z m51 -35 c2 -11 -2 -12 -17 -2 -13 8 -15 13 -6 19 13
8 20 3 23 -17z m-641 6 c3 -5 2 -12 -3 -15 -5 -3 -9 1 -9 9 0 17 3 19 12 6z
m711 -23 c5 -7 3 -8 -6 -3 -10 6 -12 4 -6 -11 5 -14 4 -16 -5 -7 -6 6 -8 16
-5 22 9 14 13 14 22 -1z m-792 -7 c3 -5 -2 -15 -12 -22 -15 -12 -16 -12 -5 2
7 9 10 19 6 22 -3 4 -4 7 0 7 3 0 8 -4 11 -9z m312 -6 c4 -8 9 -13 13 -11 4 3
8 -4 8 -15 1 -10 -2 -19 -7 -19 -10 0 -40 40 -40 52 0 14 20 8 26 -7z m-206
-19 c0 -3 -4 -8 -10 -11 -5 -3 -10 -1 -10 4 0 6 5 11 10 11 6 0 10 -2 10 -4z
m490 -22 c0 -8 -5 -12 -10 -9 -6 4 -8 11 -5 16 9 14 15 11 15 -7z m-515 -24
c-1 -11 -4 -22 -7 -25 -4 -5 -4 34 1 43 4 8 7 -1 6 -18z m562 7 c0 -8 -6 -14
-14 -14 -9 0 -10 4 -2 14 6 7 12 13 14 13 1 0 2 -6 2 -13z m197 -16 c3 -5 0
-11 -7 -14 -8 -3 -14 1 -14 9 0 16 13 19 21 5z m-699 -11 c-3 -5 -12 -10 -18
-10 -7 0 -6 4 3 10 19 12 23 12 15 0z m555 -50 c12 -8 11 -10 -7 -10 -13 0
-23 5 -23 10 0 13 11 13 30 0z"/>
<path d="M5435 4940 c3 -5 8 -10 11 -10 2 0 4 5 4 10 0 6 -5 10 -11 10 -5 0
-7 -4 -4 -10z"/>
<path d="M3330 3706 l0 -1194 57 -20 c32 -12 65 -23 73 -24 18 -4 20 21 2 50
-10 15 -11 22 -3 22 7 0 9 5 6 10 -4 6 -10 8 -14 6 -4 -3 -7 17 -7 44 1 28 -2
50 -7 50 -4 0 -3 8 2 19 6 10 7 21 4 25 -12 12 -11 116 1 109 6 -4 5 1 -3 10
-7 9 -10 17 -5 17 5 0 2 5 -6 10 -10 6 -11 10 -2 10 6 0 12 5 12 11 0 5 -3 8
-7 6 -5 -3 -9 6 -10 20 -1 19 1 22 8 12 12 -18 11 -7 0 25 -7 16 -7 26 0 28 7
2 6 14 -2 33 -7 17 -12 33 -11 36 9 47 9 63 3 86 -5 16 -5 37 -1 48 4 11 3 26
-4 34 -6 8 -6 12 -1 9 7 -4 10 10 10 37 0 24 -2 42 -5 40 -3 -2 -6 5 -6 15 0
10 5 16 10 13 6 -4 6 1 2 13 -12 31 -12 39 1 37 7 -2 3 13 -10 35 -19 33 -19
35 -2 22 17 -14 18 -14 9 5 -6 11 -9 31 -8 45 1 14 -3 33 -8 44 -6 10 -6 16
-1 13 5 -3 10 12 10 34 1 25 -2 37 -9 33 -6 -4 -6 1 1 14 7 14 8 23 1 27 -9 6
-8 42 2 85 1 8 -2 14 -9 13 -9 -2 -9 5 -2 26 7 18 6 37 -1 55 -6 17 -6 25 0
21 13 -8 13 1 -2 28 -10 20 -10 21 5 9 14 -12 16 -11 11 10 -3 12 -6 31 -6 41
1 9 -3 17 -9 17 -11 0 -7 22 6 32 6 5 6 8 -1 8 -6 0 -10 10 -8 23 1 12 3 22 4
22 1 0 3 10 4 22 1 12 -1 20 -6 17 -4 -3 -8 0 -8 5 0 6 4 11 9 11 5 0 8 11 7
24 0 13 -4 22 -8 19 -5 -2 -8 1 -8 6 0 6 4 11 10 11 6 0 6 9 1 23 -5 14 -5 30
0 40 6 9 6 17 1 17 -12 0 -12 32 1 48 6 8 6 12 -1 12 -5 0 -13 7 -16 16 -3 9
-2 12 5 9 6 -4 7 3 3 21 -4 17 -3 25 3 21 5 -3 10 0 10 8 0 8 -4 12 -8 9 -4
-2 -10 0 -13 5 -4 5 -2 12 3 16 5 3 8 15 5 28 -10 46 -12 167 -3 173 5 3 5 12
0 22 -4 9 -7 27 -6 40 1 13 -2 25 -6 28 -5 2 -4 15 0 27 5 13 3 33 -4 52 -7
16 -13 46 -14 65 0 19 -3 44 -5 55 -2 11 -5 23 -5 28 -1 4 -5 7 -11 7 -6 0
-10 -418 -10 -1194z"/>
<path d="M9661 4794 c0 -11 3 -14 6 -6 3 7 2 16 -1 19 -3 4 -6 -2 -5 -13z"/>
<path d="M9934 4785 c-9 -22 1 -29 15 -11 8 10 9 16 1 21 -5 3 -13 -1 -16 -10z"/>
<path d="M4464 4428 c2 -167 6 -310 9 -318 8 -21 16 -367 17 -699 l0 -285 33
31 c17 17 52 38 77 46 l45 15 3 403 c3 438 -2 488 -54 626 -13 36 -24 67 -24
69 0 1 41 -16 90 -38 l90 -41 0 -127 0 -127 125 -48 124 -49 3 -129 3 -129
125 -47 125 -47 3 -116 3 -117 35 -7 c19 -3 40 -14 47 -24 6 -9 26 -24 44 -34
40 -20 47 -32 67 -126 11 -49 15 -100 12 -147 -3 -40 -1 -73 3 -73 5 0 7 -15
5 -32 -6 -51 6 -63 49 -47 33 12 43 10 124 -20 48 -19 104 -41 123 -50 l35
-16 3 -130 3 -130 132 -51 132 -51 3 -135 3 -136 124 -51 c68 -28 150 -60 182
-72 64 -23 83 -41 83 -76 0 -16 8 -27 26 -33 53 -21 54 -19 54 108 l0 119
-117 45 -118 45 -5 129 -5 128 -127 51 c-70 27 -130 53 -134 57 -3 4 -6 63 -5
131 l2 124 -133 54 -133 54 -5 124 -5 124 -105 39 c-58 22 -111 44 -117 50 -8
6 -13 33 -13 63 0 48 -2 53 -25 59 l-25 6 0 129 0 129 -47 18 c-27 9 -84 31
-127 48 l-80 31 3 116 2 116 -123 50 -123 49 -5 123 -5 122 -127 50 -128 51 0
117 0 118 -122 47 c-68 25 -126 46 -131 46 -4 0 -6 -136 -3 -302z"/>
<path d="M5759 4581 c11 -7 11 -9 0 -14 -8 -3 -4 -4 8 -4 17 1 19 4 11 14 -6
7 -16 13 -22 13 -6 0 -5 -4 3 -9z"/>
<path d="M5793 4535 c0 -8 4 -12 9 -9 5 3 6 10 3 15 -9 13 -12 11 -12 -6z"/>
<path d="M5806 4512 c-3 -5 1 -9 9 -9 8 0 12 4 9 9 -3 4 -7 8 -9 8 -2 0 -6 -4
-9 -8z"/>
<path d="M7914 4350 c-88 -23 -274 -99 -274 -112 0 -5 -4 -6 -10 -3 -5 3 -10
1 -10 -5 0 -6 -4 -8 -10 -5 -6 3 -8 -14 -5 -45 3 -28 1 -49 -3 -46 -4 2 -6
-17 -6 -42 1 -26 2 -78 3 -116 1 -38 3 -67 5 -65 2 2 7 33 11 69 12 114 24
103 26 -25 l1 -120 14 79 c12 74 23 107 25 75 0 -9 4 -6 10 6 7 15 8 11 4 -15
-4 -19 -8 -51 -10 -70 l-5 -35 13 37 c19 58 44 47 25 -12 -7 -23 -6 -23 5 -5
18 29 67 78 73 73 2 -3 -7 -26 -22 -51 -27 -50 -24 -59 10 -28 12 10 32 22 46
25 19 5 11 -6 -35 -49 l-60 -56 72 37 c82 41 114 42 51 1 -45 -29 -35 -34 35
-18 20 5 37 6 37 2 0 -8 -37 -21 -130 -47 l-45 -13 87 0 c48 -1 90 -5 93 -11
4 -6 -8 -10 -28 -10 -47 0 -54 -12 -15 -27 36 -14 34 -14 -157 6 -97 11 -172
8 -186 -6 -10 -10 -3 -11 27 -7 l39 6 -25 -21 c-31 -26 -57 -26 -95 -1 l-30
20 33 6 c54 11 45 20 -13 14 -82 -9 -83 -8 29 -84 51 -34 75 -33 205 9 59 19
116 35 127 34 18 0 18 -1 -1 -9 -11 -4 -38 -13 -61 -20 -22 -7 -55 -25 -73
-41 -18 -16 -38 -26 -44 -22 -6 4 -7 1 -3 -6 5 -7 15 -10 23 -7 8 3 11 2 8 -3
-3 -6 3 -14 12 -20 11 -6 13 -11 5 -11 -9 0 -11 -7 -7 -22 4 -15 3 -19 -3 -10
-6 9 -11 6 -20 -12 -7 -16 -8 -27 -1 -31 5 -4 8 -1 7 6 -2 6 2 13 9 16 14 5 6
-34 -11 -56 -8 -11 -8 -13 2 -7 11 6 17 -5 13 -26 0 -5 3 -8 7 -8 5 0 9 -7 9
-15 0 -8 -5 -11 -10 -8 -6 4 -8 0 -4 -10 3 -9 1 -19 -5 -23 -6 -4 -8 -3 -4 4
3 6 2 13 -3 16 -11 7 -9 -13 3 -33 5 -8 3 -17 -5 -22 -11 -8 -10 -12 5 -24 18
-13 15 -20 -6 -16 -13 2 -9 -17 5 -22 9 -3 9 -7 -2 -20 -11 -15 -11 -17 2 -17
9 0 19 -5 23 -12 4 -7 3 -8 -4 -4 -7 4 -12 1 -12 -7 0 -10 62 -40 179 -86 191
-76 329 -118 355 -108 14 6 16 74 16 676 l0 669 -50 11 c-76 16 -206 12 -286
-9z m-282 -166 c-3 -18 -7 -22 -13 -13 -4 7 -3 19 3 26 15 18 16 17 10 -13z
m75 -156 c-3 -8 -6 -5 -6 6 -1 11 2 17 5 13 3 -3 4 -12 1 -19z m-27 -326 c0
-4 -9 -13 -20 -20 -12 -7 -19 -16 -16 -20 7 -12 -43 -7 -55 5 -8 8 -3 16 17
27 31 16 74 21 74 8z"/>
<path d="M5923 4205 c0 -33 2 -45 4 -27 2 18 2 45 0 60 -2 15 -4 0 -4 -33z"/>
<path d="M6004 4202 c4 -3 14 -7 22 -8 9 -1 13 0 10 4 -4 3 -14 7 -22 8 -9 1
-13 0 -10 -4z"/>
<path d="M3817 4152 l-26 -48 -7 -675 c-4 -371 -4 -687 -1 -701 5 -17 17 -30
37 -36 l30 -11 0 760 c0 417 -2 759 -3 759 -2 0 -16 -22 -30 -48z"/>
<path d="M6036 4172 c-3 -5 1 -9 9 -9 8 0 12 4 9 9 -3 4 -7 8 -9 8 -2 0 -6 -4
-9 -8z"/>
<path d="M6056 4142 c-3 -5 1 -9 9 -9 8 0 12 4 9 9 -3 4 -7 8 -9 8 -2 0 -6 -4
-9 -8z"/>
<path d="M6076 4112 c-3 -5 1 -9 9 -9 8 0 12 4 9 9 -3 4 -7 8 -9 8 -2 0 -6 -4
-9 -8z"/>
<path d="M6084 4082 c4 -3 14 -7 22 -8 9 -1 13 0 10 4 -4 3 -14 7 -22 8 -9 1
-13 0 -10 -4z"/>
<path d="M7534 4065 c5 -11 17 -45 27 -75 12 -39 18 -47 18 -29 1 34 -19 90
-38 109 -13 13 -14 13 -7 -5z"/>
<path d="M6116 4052 c-3 -5 1 -9 9 -9 8 0 12 4 9 9 -3 4 -7 8 -9 8 -2 0 -6 -4
-9 -8z"/>
<path d="M6127 4014 c3 -8 10 -13 15 -12 16 6 14 21 -4 24 -11 1 -15 -3 -11
-12z"/>
<path d="M6156 3992 c-3 -5 1 -9 9 -9 8 0 12 4 9 9 -3 4 -7 8 -9 8 -2 0 -6 -4
-9 -8z"/>
<path d="M6143 3890 c0 -25 2 -35 4 -22 2 12 2 32 0 45 -2 12 -4 2 -4 -23z"/>
<path d="M6211 3898 c-1 -20 14 -24 25 -6 4 6 3 8 -4 4 -5 -3 -13 0 -15 6 -3
8 -6 6 -6 -4z"/>
<path d="M7561 3884 c0 -11 3 -14 6 -6 3 7 2 16 -1 19 -3 4 -6 -2 -5 -13z"/>
<path d="M8656 3882 c-3 -3 -6 -10 -6 -15 0 -6 3 -8 6 -4 4 3 13 0 21 -8 8 -8
21 -19 31 -24 13 -8 14 -12 3 -25 -16 -19 -1 -22 18 -3 10 10 11 9 6 -4 -4
-10 -1 -20 4 -24 6 -3 9 -10 6 -15 -3 -4 3 -7 12 -5 17 2 83 -60 83 -78 0 -5
5 -5 12 -1 7 4 8 3 4 -4 -4 -7 -3 -12 2 -12 5 0 9 -7 9 -15 0 -9 -6 -14 -14
-11 -8 3 -11 1 -8 -4 9 -14 35 -13 35 2 0 6 2 9 5 6 8 -8 -6 -39 -15 -33 -5 3
-7 -1 -6 -7 1 -7 6 -14 11 -15 6 0 9 3 8 7 -4 13 26 20 33 8 4 -6 3 -8 -4 -4
-7 4 -10 -3 -9 -19 1 -14 9 -30 17 -35 12 -8 13 -13 2 -30 -7 -12 -8 -20 -2
-20 5 0 10 -5 10 -11 0 -5 -5 -7 -12 -3 -6 4 -8 3 -4 -4 3 -5 0 -13 -6 -15 -9
-4 -10 -6 -1 -6 6 -1 19 9 29 22 9 12 14 15 11 6 -3 -9 0 -22 6 -28 9 -9 8
-11 -5 -6 -11 4 -18 2 -18 -4 0 -6 8 -11 18 -12 10 0 12 -3 4 -6 -6 -2 -10 -9
-6 -14 8 -14 -3 -11 -19 6 -13 12 -15 11 -13 -9 0 -13 5 -22 9 -19 4 3 17 -5
28 -18 25 -29 24 -33 -5 -14 -18 12 -26 13 -32 4 -5 -8 -3 -9 6 -4 9 5 10 2 5
-14 -5 -16 -3 -20 8 -15 23 8 29 -25 7 -38 -14 -9 -18 -19 -13 -38 5 -25 5
-25 -11 -5 -17 20 -17 20 -6 -3 9 -17 8 -27 0 -37 -7 -8 -10 -20 -7 -27 4 -9
6 -8 6 3 1 9 10 24 21 34 20 18 21 18 14 0 -6 -14 -4 -16 6 -10 9 5 11 4 6 -4
-4 -6 -11 -9 -16 -6 -5 3 -12 0 -16 -6 -4 -7 -3 -9 4 -5 6 3 13 2 16 -3 4 -5
2 -12 -4 -16 -6 -4 -4 -12 6 -22 9 -9 14 -26 11 -39 -4 -22 7 -28 149 -84 85
-33 158 -60 162 -60 5 0 21 -9 36 -21 44 -35 29 -83 -34 -107 -24 -9 -24 -10
-5 -17 11 -4 178 -70 372 -146 193 -76 363 -141 377 -145 l26 -6 -2 418 -3
418 -650 254 c-357 140 -660 255 -672 256 -11 0 -19 4 -17 7 5 8 -33 19 -40
11z m104 -102 c0 -5 -2 -10 -4 -10 -3 0 -8 5 -11 10 -3 6 -1 10 4 10 6 0 11
-4 11 -10z m195 -510 c-3 -5 -12 -10 -18 -10 -7 0 -6 4 3 10 19 12 23 12 15 0z
m20 -90 c3 -5 1 -10 -4 -10 -6 0 -11 5 -11 10 0 6 2 10 4 10 3 0 8 -4 11 -10z
m-5 -30 c0 -5 -2 -10 -4 -10 -3 0 -8 5 -11 10 -3 6 -1 10 4 10 6 0 11 -4 11
-10z"/>
<path d="M6236 3872 c-3 -5 1 -9 9 -9 8 0 12 4 9 9 -3 4 -7 8 -9 8 -2 0 -6 -4
-9 -8z"/>
<path d="M6244 3842 c4 -3 14 -7 22 -8 9 -1 13 0 10 4 -4 3 -14 7 -22 8 -9 1
-13 0 -10 -4z"/>
<path d="M6812 3805 c0 -16 2 -22 5 -12 2 9 2 23 0 30 -3 6 -5 -1 -5 -18z"/>
<path d="M6239 3788 c-6 -20 -6 -39 0 -42 4 -3 7 6 7 20 0 20 -4 32 -7 22z"/>
<path d="M6300 3770 c-12 -7 -10 -9 7 -7 12 0 19 5 17 9 -6 10 -6 10 -24 -2z"/>
<path d="M6395 3771 c-6 -11 9 -23 19 -14 9 9 7 23 -3 23 -6 0 -12 -4 -16 -9z"/>
<path d="M6812 3750 c0 -14 2 -19 5 -12 2 6 2 18 0 25 -3 6 -5 1 -5 -13z"/>
<path d="M6811 3704 c0 -11 3 -14 6 -6 3 7 2 16 -1 19 -3 4 -6 -2 -5 -13z"/>
<path d="M6248 3703 c0 -5 -2 -12 -3 -18 -2 -5 -4 -14 -5 -20 -1 -5 -5 -1 -10
10 -7 16 -9 14 -9 -15 l-1 -34 17 24 c10 14 18 27 18 30 0 3 4 11 8 18 5 7 4
12 -2 12 -6 0 -12 -3 -13 -7z"/>
<path d="M8471 3694 c0 -11 3 -14 6 -6 3 7 2 16 -1 19 -3 4 -6 -2 -5 -13z"/>
<path d="M8783 3694 c0 -7 5 -12 11 -11 6 1 10 -4 8 -12 -3 -12 -1 -12 13 -1
11 9 13 16 6 23 -16 16 -38 17 -38 1z"/>
<path d="M6280 3672 c-21 -17 -21 -19 -4 -32 11 -9 15 -10 10 -2 -4 6 -3 12 2
12 5 0 12 9 15 20 6 24 5 25 -23 2z"/>
<path d="M6373 3675 c0 -8 4 -12 9 -9 5 3 6 10 3 15 -9 13 -12 11 -12 -6z"/>
<path d="M6455 3680 c-3 -6 1 -7 9 -4 18 7 21 14 7 14 -6 0 -13 -4 -16 -10z"/>
<path d="M6811 3664 c0 -11 3 -14 6 -6 3 7 2 16 -1 19 -3 4 -6 -2 -5 -13z"/>
<path d="M6306 3654 c-8 -22 -7 -34 3 -34 5 0 9 11 9 25 0 29 -3 31 -12 9z"/>
<path d="M8456 3633 c-13 -28 -17 -57 -14 -127 2 -50 2 -169 0 -265 l-3 -174
-27 -21 c-14 -11 -33 -19 -42 -18 -8 2 -12 1 -8 -4 4 -4 3 -13 -3 -21 -9 -10
-8 -13 5 -13 10 0 14 5 11 10 -3 6 -2 10 3 10 6 0 13 -7 16 -16 3 -8 10 -12
16 -9 5 3 10 0 11 -7 1 -7 5 -2 9 12 l8 25 1 -27 c1 -20 8 -29 32 -37 39 -13
71 -15 51 -3 -15 10 -24 82 -10 82 7 0 7 4 1 13 -5 6 -10 89 -11 183 0 94 -6
198 -13 230 -6 33 -12 94 -11 137 0 42 -1 77 -2 77 -1 0 -10 -17 -20 -37z
m-36 -627 c0 -3 -4 -8 -10 -11 -5 -3 -10 -1 -10 4 0 6 5 11 10 11 6 0 10 -2
10 -4z"/>
<path d="M8827 3656 c-4 -10 -1 -13 8 -9 8 3 12 9 9 14 -7 12 -11 11 -17 -5z"/>
<path d="M6475 3650 c-3 -6 1 -7 9 -4 18 7 21 14 7 14 -6 0 -13 -4 -16 -10z"/>
<path d="M6413 3615 c0 -8 4 -12 9 -9 5 3 6 10 3 15 -9 13 -12 11 -12 -6z"/>
<path d="M7670 3572 c0 -5 7 -9 15 -9 8 0 12 4 9 9 -3 4 -9 8 -15 8 -5 0 -9
-4 -9 -8z"/>
<path d="M6812 3545 c0 -16 2 -22 5 -12 2 9 2 23 0 30 -3 6 -5 -1 -5 -18z"/>
<path d="M8885 3501 c-3 -5 -2 -12 3 -15 5 -3 9 1 9 9 0 17 -3 19 -12 6z"/>
<path d="M7674 3419 c-7 -11 16 -32 25 -23 3 3 -1 9 -8 13 -11 7 -11 10 0 14
9 3 10 6 2 6 -6 1 -15 -4 -19 -10z"/>
<path d="M6810 3366 c0 -25 -5 -48 -12 -52 -6 -4 -8 -3 -4 4 3 5 2 12 -4 14
-5 1 -11 15 -12 30 -1 15 -5 25 -9 22 -4 -2 -3 -19 2 -37 5 -17 9 -33 9 -34 0
-1 -7 1 -17 4 -10 4 -14 2 -9 -5 3 -6 2 -13 -4 -17 -5 -3 -10 0 -10 8 0 8 -7
18 -16 21 -28 11 -35 7 -24 -14 6 -10 11 -42 11 -69 1 -35 5 -48 13 -44 6 4 6
0 -2 -9 -10 -12 -10 -18 2 -27 16 -14 10 -45 -7 -34 -6 3 -7 1 -3 -5 5 -9 13
-9 27 -2 11 6 19 7 19 1 0 -5 -12 -12 -27 -16 -21 -5 -24 -8 -12 -16 9 -6 10
-9 2 -9 -9 0 -13 -18 -11 -62 l1 -63 7 50 c4 29 8 40 10 25 1 -14 2 -28 1 -32
0 -3 13 -3 29 2 25 7 28 6 25 -12 -6 -27 -15 -36 -15 -15 0 11 -5 14 -17 10
-11 -4 -12 -8 -5 -11 8 -2 10 -13 6 -29 -5 -17 -3 -24 4 -19 6 3 13 -2 17 -13
3 -11 14 -22 23 -24 9 -3 4 -5 -13 -6 -22 -1 -26 -4 -15 -10 8 -6 18 -7 23 -4
5 3 13 -1 18 -8 5 -8 9 104 9 269 0 155 -2 282 -5 282 -3 0 -5 -20 -5 -44z
m-7 -83 c-4 -10 -9 -11 -19 -2 -19 15 -18 18 5 16 11 -1 17 -6 14 -14z m-33
-19 c0 -8 -19 -13 -24 -6 -3 5 1 9 9 9 8 0 15 -2 15 -3z m21 -138 c5 3 9 0 9
-6 0 -15 -23 -7 -26 8 -1 7 0 8 3 2 2 -5 9 -8 14 -4z m-36 -36 c-3 -5 1 -10 9
-10 8 0 18 -5 22 -12 4 -7 3 -8 -5 -4 -6 4 -18 2 -27 -4 -12 -11 -14 -9 -10
11 6 31 5 29 12 29 3 0 2 -4 -1 -10z m23 -57 c-4 -19 -35 -27 -35 -8 0 7 6 11
14 8 7 -3 13 0 13 6 0 6 3 11 6 11 3 0 4 -7 2 -17z"/>
<path d="M6595 3339 c-4 -6 -4 -13 -1 -16 3 -4 6 -1 6 6 0 7 5 9 12 5 7 -4 8
-3 4 4 -9 15 -13 15 -21 1z"/>
<path d="M6636 3297 c3 -10 9 -15 12 -12 3 3 0 11 -7 18 -10 9 -11 8 -5 -6z"/>
<path d="M6643 3230 c0 -25 2 -35 4 -22 2 12 2 32 0 45 -2 12 -4 2 -4 -23z"/>
<path d="M5129 3183 l-24 -28 28 24 c15 14 27 26 27 28 0 8 -8 1 -31 -24z"/>
<path d="M4550 3126 c-79 -35 -95 -55 -61 -78 12 -8 18 -18 13 -23 -4 -4 2 -5
13 0 11 4 29 10 40 13 11 3 41 22 67 43 44 34 46 38 32 58 -18 25 -12 26 -104
-13z"/>
<path d="M8926 3121 c-3 -5 1 -11 9 -14 9 -4 12 -1 8 9 -6 16 -10 17 -17 5z"/>
<path d="M4745 3069 c-4 -6 -15 -13 -25 -17 -31 -12 -175 -135 -162 -140 7 -2
13 -18 13 -35 2 -31 2 -31 6 -4 4 25 8 27 46 26 l42 -2 -35 -6 c-19 -3 -36
-12 -37 -18 -2 -7 0 -13 5 -14 4 0 15 -2 24 -4 10 -2 31 12 50 33 17 21 39 36
47 34 14 -2 14 -1 1 7 -23 16 54 83 89 78 19 -3 28 0 28 9 0 7 -5 10 -11 7 -6
-4 -5 1 2 10 12 14 12 19 0 31 -9 9 -20 11 -28 6 -8 -5 -22 -4 -31 1 -12 6
-20 5 -24 -2z m-105 -197 c0 -5 -7 -9 -15 -9 -8 0 -12 4 -9 9 3 4 9 8 15 8 5
0 9 -4 9 -8z"/>
<path d="M4556 3003 c-6 -14 -5 -15 5 -6 7 7 10 15 7 18 -3 3 -9 -2 -12 -12z"/>
<path d="M8320 2980 c0 -6 -4 -9 -8 -6 -5 3 -9 -1 -9 -9 0 -12 3 -12 15 -2 8
6 17 11 19 10 1 -2 3 0 4 4 0 4 -4 9 -10 11 -6 2 -11 -1 -11 -8z"/>
<path d="M8265 2971 c3 -5 -1 -12 -7 -14 -8 -4 -7 -6 4 -6 23 -1 32 15 12 23
-8 3 -13 2 -9 -3z"/>
<path d="M4876 2922 c2 -26 4 -54 6 -62 4 -13 51 -85 86 -129 15 -19 -19 48
-53 104 -15 25 -24 56 -25 82 0 23 -4 44 -8 47 -5 3 -7 -16 -6 -42z"/>
<path d="M922 2734 l3 -196 145 -58 c80 -32 393 -159 695 -281 303 -122 771
-311 1040 -419 915 -369 1319 -532 1735 -700 531 -215 1581 -638 1643 -662
l47 -18 -2 192 -3 193 -250 101 c-137 56 -540 218 -895 362 -355 143 -706 285
-780 315 -74 30 -391 159 -705 285 -313 127 -671 272 -795 322 -124 50 -396
160 -605 245 -209 84 -553 224 -765 310 -212 86 -413 168 -448 181 l-62 24 2
-196z"/>
<path d="M8156 2908 c3 -5 10 -6 15 -3 13 9 11 12 -6 12 -8 0 -12 -4 -9 -9z"/>
<path d="M8296 2902 c-3 -5 1 -9 9 -9 8 0 12 4 9 9 -3 4 -7 8 -9 8 -2 0 -6 -4
-9 -8z"/>
<path d="M5188 2758 c-9 -5 -6 -7 9 -5 12 2 25 6 28 8 8 9 -23 6 -37 -3z"/>
<path d="M5486 2759 c2 -4 -1 -9 -8 -11 -7 -3 5 -5 27 -5 22 0 29 2 16 4 -18
4 -21 7 -10 13 10 7 8 9 -8 7 -12 0 -20 -4 -17 -8z"/>
<path d="M5605 2760 c3 -5 0 -7 -8 -4 -8 3 -18 1 -22 -5 -3 -6 0 -11 7 -11 7
0 1 -12 -14 -25 -16 -13 -28 -32 -28 -42 0 -9 -15 -33 -32 -53 -25 -26 -22
-25 12 8 25 23 53 42 62 42 9 0 20 5 24 12 4 6 3 8 -3 5 -6 -4 -10 4 -10 19 0
17 8 29 28 40 35 18 36 19 3 22 -14 1 -23 -2 -19 -8z"/>
<path d="M8070 2738 c132 -60 494 -208 507 -208 20 0 213 101 213 111 0 12 3
13 -104 -31 -53 -22 -103 -40 -112 -40 -9 0 -97 32 -197 71 -226 89 -284 109
-322 114 -26 3 -24 1 15 -17z"/>
<path d="M5245 2720 c-4 -6 -10 -8 -13 -6 -4 2 -18 -2 -32 -10 l-25 -14 32 4
c36 5 89 36 61 36 -9 0 -20 -5 -23 -10z"/>
<path d="M5548 2723 c-10 -2 -18 -9 -18 -14 0 -6 -5 -7 -12 -3 -7 4 -8 3 -4
-4 5 -9 14 -7 32 4 13 9 24 18 24 20 0 2 -1 3 -2 3 -2 -1 -11 -3 -20 -6z"/>
<path d="M5206 2663 c-6 -14 -5 -15 5 -6 7 7 10 15 7 18 -3 3 -9 -2 -12 -12z"/>
<path d="M8800 2649 c0 -5 5 -7 10 -4 6 3 10 8 10 11 0 2 -4 4 -10 4 -5 0 -10
-5 -10 -11z"/>
<path d="M5449 2573 c-13 -16 -12 -17 4 -4 9 7 17 15 17 17 0 8 -8 3 -21 -13z"/>
<path d="M5409 2543 c-13 -16 -12 -17 4 -4 9 7 17 15 17 17 0 8 -8 3 -21 -13z"/>
<path d="M5309 2461 l-69 -69 -14 26 c-7 15 -12 38 -9 52 l4 25 -22 -27 c-13
-15 -23 -42 -23 -60 -1 -18 -5 -33 -11 -33 -5 0 -9 21 -9 47 1 40 -1 45 -15
38 -9 -4 -36 -14 -61 -20 -24 -7 -81 -30 -125 -52 -44 -22 -104 -50 -133 -63
l-53 -22 173 -67 c95 -38 182 -68 193 -68 18 0 64 20 290 127 l79 38 -94 37
c-82 32 -96 34 -102 21 -4 -11 -7 -11 -7 -3 -1 7 -5 10 -11 7 -5 -3 -10 2 -10
12 0 9 26 41 57 70 31 29 53 53 49 53 -5 0 -39 -31 -77 -69z m-73 -119 c-15
-15 -15 -15 -4 10 7 15 15 23 17 17 2 -6 -4 -18 -13 -27z m44 -6 c0 -2 -8 -10
-17 -17 -16 -13 -17 -12 -4 4 13 16 21 21 21 13z"/>
<path d="M6966 2295 c-7 -18 35 -41 58 -32 20 8 21 33 0 41 -10 4 -13 2 -8 -7
5 -9 4 -9 -7 1 -18 16 -36 15 -43 -3z"/>
<path d="M7056 2273 c-6 -14 -5 -15 5 -6 7 7 10 15 7 18 -3 3 -9 -2 -12 -12z"/>
<path d="M6032 1958 c-15 -15 -16 -45 -1 -54 6 -3 16 -1 22 5 8 8 6 11 -7 11
-11 0 -16 6 -14 18 2 9 10 16 17 14 7 -1 10 2 6 8 -8 13 -8 13 -23 -2z"/>
<path d="M6333 1870 c-31 -12 -29 -18 10 -35 22 -9 36 -10 45 -3 14 12 16 38
3 38 -5 0 -15 2 -23 4 -7 3 -23 1 -35 -4z m57 -18 c0 -5 -7 -9 -15 -9 -8 0
-15 4 -15 9 0 4 7 8 15 8 8 0 15 -4 15 -8z"/>
<path d="M6005 1812 c-5 -23 -1 -49 13 -85 11 -28 26 -83 32 -120 11 -63 11
-69 -6 -82 -25 -17 -12 -29 22 -21 l26 7 -6 80 c-5 51 -4 79 3 79 15 0 21 -14
36 -87 9 -43 11 -71 5 -78 -13 -15 -2 -25 27 -25 25 0 29 10 12 27 -11 11 -14
151 -4 161 3 3 24 1 47 -4 54 -11 68 -38 70 -133 1 -62 3 -71 20 -71 16 0 18
9 18 84 0 47 4 87 9 90 11 7 21 -17 22 -57 1 -27 3 -24 9 13 4 25 4 53 -1 62
-12 22 -64 59 -73 51 -3 -3 -6 -1 -6 5 0 9 -18 19 -50 27 -3 1 -12 4 -20 8 -8
3 -38 8 -67 10 -58 6 -98 28 -117 65 l-14 26 -7 -32z"/>
<path d="M6763 1796 c3 -7 1 -19 -4 -25 -6 -8 -5 -8 3 -1 15 13 19 40 6 40 -6
0 -8 -6 -5 -14z"/>
<path d="M6796 1785 c4 -8 12 -15 20 -15 17 0 18 -16 2 -26 -7 -4 -8 -3 -4 4
5 8 2 10 -9 6 -19 -8 -19 -7 23 -28 l32 -17 0 35 c0 29 -4 36 -31 45 -40 14
-39 14 -33 -4z"/>
<path d="M6717 1779 c7 -7 15 -10 18 -7 3 3 -2 9 -12 12 -14 6 -15 5 -6 -5z"/>
<path d="M6996 1764 c-8 -22 -8 -22 67 -50 59 -21 66 -21 71 -7 9 21 1 28 -62
52 -64 25 -68 26 -76 5z"/>
<path d="M6363 1523 c3 -13 1 -23 -4 -23 -5 0 -9 -9 -9 -20 0 -11 7 -20 15
-20 18 0 20 47 4 70 -9 12 -10 11 -6 -7z"/>
</g>
</svg>
